<svg xmlns="http://www.w3.org/2000/svg" xmlns:xlink="http://www.w3.org/1999/xlink" xmlns:sketch="http://www.bohemiancoding.com/sketch/ns" viewBox="0 0 40 40" version="1.1" x="0px" y="0px"><title>drum_instrument_music_rock</title><desc>Created with Sketch.</desc><g stroke="none" stroke-width="1" fill="none" fill-rule="evenodd" sketch:type="MSPage"><path d="M8.02392579,12.089371 C6.19224767,14.5765175 5.1098932,17.6494922 5.1098932,20.9752644 C5.1098932,29.2595357 11.825622,35.9752644 20.1098932,35.9752644 C28.3941644,35.9752644 35.1098932,29.2595357 35.1098932,20.9752644 C35.1098932,17.6121097 34.0030701,14.5074674 32.1338115,12.0057251 L32.1338115,12.0057251 L36.8151088,6.24336841 C37.1966982,5.77365791 37.1562673,5.11961185 36.7180268,4.77722084 C36.2828205,4.4372004 35.6357534,4.55334028 35.2719438,5.03771584 L31.0273981,10.6888984 C28.2921111,7.78685638 24.4125621,5.97526441 20.1098932,5.97526441 C15.7692663,5.97526441 11.8592578,7.81896094 9.12026419,10.7659575 L4.81784011,5.03771584 C4.45403055,4.55334028 3.80696346,4.4372004 3.37175714,4.77722084 C2.93351664,5.11961185 2.89308575,5.77365791 3.2746752,6.24336841 L8.02392579,12.089371 Z M10.3436507,12.3947727 C12.7261052,9.68522261 16.2183081,7.97526441 20.1098932,7.97526441 C23.9633338,7.97526441 27.4251832,9.65186562 29.8057597,12.3153862 L29.8057597,12.3153862 L20.9699242,24.0794058 C20.8014275,24.303742 20.8374313,24.6204503 21.0526921,24.7886305 L21.090829,24.8184263 C21.3050372,24.9857841 21.6207186,24.9466233 21.7990101,24.7271586 L30.8267895,13.6145798 C32.2668946,15.7073205 33.1098932,18.242846 33.1098932,20.9752644 C33.1098932,28.1549662 27.2895949,33.9752644 20.1098932,33.9752644 C12.9301915,33.9752644 7.1098932,28.1549662 7.1098932,20.9752644 C7.1098932,18.2805922 7.92976191,15.7774106 9.33365765,13.7015613 L18.2907739,24.7271586 C18.4690653,24.9466233 18.7847468,24.9857841 18.9989549,24.8184263 L19.0370919,24.7886305 C19.2523527,24.6204503 19.2883564,24.303742 19.1198597,24.0794058 L10.3436507,12.3947727 Z" fill="#DE5E60" sketch:type="MSShapeGroup"></path></g></svg>