<svg xmlns="http://www.w3.org/2000/svg" xmlns:xlink="http://www.w3.org/1999/xlink" version="1.1" x="0px" y="0px" viewBox="0 0 96 96" enable-background="new 0 0 96 96" xml:space="preserve"><path fill="#DE5E60" d="M94.632,26.1c-0.823-0.272-1.72,0.008-2.235,0.696C87.984,32.676,79.092,42,73.996,42H4c0-1.104-0.896-2-2-2s-2,0.896-2,2v4  c0,1.104,0.896,2,2,2s2-0.896,2-2h12.644C13.88,48.252,12,51.328,12,55v1.5C12,64.452,20.432,70,28,70h32c7.408,0,12-5.08,12-13.252  v-1.752c0-3.74-1.036-6.78-2.848-9H74c5.092,0,13.988,9.324,18.4,15.204c0.388,0.508,0.983,0.796,1.6,0.796  c0.212,0,0.42-0.032,0.632-0.1c0.816-0.272,1.368-1.041,1.368-1.9v-32C96,27.14,95.443,26.376,94.632,26.1z M68,55v1.752  c0,3.452-1.04,9.252-8,9.252H28c-5.548,0-12-4.148-12-9.5v-1.5c0-5.304,6.324-9,12-9h32C66.607,46,68,50.896,68,55z"></path></svg>