<svg xmlns="http://www.w3.org/2000/svg" xmlns:xlink="http://www.w3.org/1999/xlink" version="1.1" viewBox="0 0 96 96" x="0px" y="0px"><path d="M48 88h-0.692c-18.836 0-27.308-18.712-27.308-32 0-1.104 0.896-2 2-2 3.156 0 8.308-3.524 8.308-6.308 0-3.416-0.452-5.848-6.308-5.848-1.104 0-2-0.896-2-2v-1.844c0-7.416 4.244-21.168 20-22.244v-11.756c0-1.104 0.896-2 2-2s2 0.896 2 2v13.692c0 1.104-0.896 2-2 2-14.168 0-17.98 11.44-18 18.252 7.4 0.752 8.308 5.848 8.308 9.752 0 4.836-5.656 9.020-10.256 10.064 0.68 11.444 7.972 26.252 23.256 26.252h0.692c16.576 0 23.292-15.432 23.948-26.26-4.752-1.112-10.772-5.688-10.772-10.508 0-5.708 2.896-8.756 8.828-9.292-0.056-6.444-7.46-18.248-18-18.248-1.1 0-2-0.896-2-2v-13.704c0-1.104 0.9-2 2-2 1.104 0 2 0.896 2 2v11.8c12.276 1.356 20 14.916 20 22.2v1.844c0 1.104-0.896 2-2 2-6.312 0-6.828 2.44-6.828 5.388 0 2.592 5.444 6.768 8.828 6.768 1.104 0 2 0.896 2 2-0.004 12.372-7.604 32-28.004 32z" fill="#DE5E60"></path><path d="M44 78c-1.104 0-2-0.896-2-2v-48c0-1.104 0.896-2 2-2s2 0.896 2 2v48c0 1.104-0.9 2-2 2z" fill="#DE5E60"></path><path d="M52 78c-1.104 0-2-0.896-2-2v-48c0-1.104 0.896-2 2-2 1.1 0 2 0.896 2 2v48c0 1.104-0.9 2-2 2z" fill="#DE5E60"></path><path d="M48 94c-1.104 0-2-0.896-2-2v-4c0-1.104 0.896-2 2-2s2 0.896 2 2v4c0 1.104-0.9 2-2 2z" fill="#DE5E60"></path></svg>

