<svg xmlns="http://www.w3.org/2000/svg" xmlns:xlink="http://www.w3.org/1999/xlink" version="1.1" x="0px" y="0px" viewBox="0 0 90 90" enable-background="new 0 0 90 90" xml:space="preserve"><path fill="#DE5E60" d="M52.735,79.658c-1.186-3.519-3.577-11.555-3.577-19.073v-9.812h1.841V48.73h-1.841v-3.079h1.841v-2.042  h-1.841v-3.079h1.841v-2.042h-1.841V9.954c0-0.693-0.236-2.299-0.632-3.786c-0.634-2.373-1.359-3.385-2.432-3.385h-2.191  c-1.072,0-1.799,1.012-2.431,3.385c-0.396,1.487-0.632,3.093-0.632,3.786v6.509h-1.797v2.042h1.797v3.079h-1.797v2.042h1.797v3.079  h-1.797v2.042h1.797v31.839c0,7.512-2.393,15.554-3.578,19.074c-0.461,0.668-0.717,1.41-0.717,2.197c0,3.005,3.713,5.36,8.454,5.36  s8.455-2.355,8.455-5.36C53.454,81.068,53.196,80.326,52.735,79.658z M42.883,9.954c0-1.157,0.707-4.362,1.262-5.128h1.71  c0.554,0.767,1.262,3.972,1.262,5.128v5.445c-0.506-0.465-1.179-0.752-1.917-0.752c-0.957,0-1.802,0.477-2.316,1.205V9.954z   M46.41,20.043c0.26-0.124,0.498-0.284,0.706-0.477v0.953C46.908,20.328,46.67,20.167,46.41,20.043z M47.116,24.688v0.953  c-0.208-0.192-0.446-0.353-0.706-0.476C46.67,25.041,46.908,24.88,47.116,24.688z M45.199,23.398c-0.438,0-0.794-0.357-0.794-0.794  c0-0.438,0.356-0.794,0.794-0.794s0.793,0.356,0.793,0.794C45.992,23.042,45.637,23.398,45.199,23.398z M45.992,27.725  c0,0.438-0.355,0.794-0.793,0.794s-0.794-0.356-0.794-0.794c0-0.438,0.356-0.794,0.794-0.794S45.992,27.287,45.992,27.725z   M45.199,18.277c-0.438,0-0.794-0.356-0.794-0.794c0-0.438,0.356-0.795,0.794-0.795s0.793,0.356,0.793,0.795  C45.992,17.921,45.637,18.277,45.199,18.277z M42.883,19.115c0.281,0.398,0.661,0.718,1.104,0.929  c-0.443,0.211-0.823,0.531-1.104,0.928V19.115z M42.883,24.236c0.281,0.397,0.661,0.717,1.104,0.928  c-0.443,0.21-0.823,0.531-1.104,0.928V24.236z M42.883,29.357c0.514,0.727,1.359,1.205,2.316,1.205c0.739,0,1.412-0.287,1.917-0.752  v8.009c-0.519-0.693-1.342-1.146-2.272-1.146c-0.761,0-1.452,0.303-1.961,0.792V29.357z M46.057,42.07  c0.42-0.201,0.783-0.5,1.06-0.87v1.739C46.84,42.57,46.477,42.27,46.057,42.07z M47.116,46.321v1.739  c-0.276-0.37-0.64-0.669-1.06-0.869C46.477,46.991,46.84,46.691,47.116,46.321z M44.844,45.425c-0.438,0-0.794-0.356-0.794-0.794  s0.356-0.793,0.794-0.793s0.794,0.355,0.794,0.793S45.282,45.425,44.844,45.425z M45.639,49.752c0,0.438-0.356,0.794-0.794,0.794  s-0.794-0.356-0.794-0.794c0-0.439,0.356-0.795,0.794-0.795S45.639,49.312,45.639,49.752z M44.844,40.304  c-0.438,0-0.794-0.356-0.794-0.794c0-0.438,0.356-0.794,0.794-0.794s0.794,0.356,0.794,0.794  C45.639,39.947,45.282,40.304,44.844,40.304z M42.883,41.554c0.219,0.21,0.472,0.385,0.749,0.517  c-0.277,0.132-0.53,0.306-0.749,0.516V41.554z M42.883,46.675c0.219,0.21,0.472,0.384,0.749,0.517  c-0.277,0.132-0.53,0.307-0.749,0.517V46.675z M42.883,51.796c0.51,0.489,1.201,0.792,1.961,0.792c0.93,0,1.753-0.452,2.272-1.146  v10.133c0,0.629-0.458,1.143-1.021,1.143h-2.191c-0.563,0-1.021-0.514-1.021-1.143V51.796z M42.699,64.502  c0.37,0.166,0.777,0.258,1.205,0.258h2.191c0.428,0,0.835-0.092,1.204-0.258c0.443,4.908,1.604,9.622,2.591,12.955  c-1.373-0.607-3.054-0.962-4.89-0.962c-1.837,0-3.518,0.354-4.89,0.962C41.096,74.124,42.256,69.41,42.699,64.502z M45,85.175  c-3.649,0-6.229-1.631-6.402-3.156c0.098-0.258,0.273-0.733,0.499-1.389c0.238-0.289,0.559-0.566,0.947-0.819  c0.406,1.693,2.47,2.981,4.956,2.981s4.548-1.288,4.957-2.981c0.389,0.253,0.708,0.53,0.947,0.819  c0.225,0.655,0.4,1.131,0.498,1.388C51.229,83.544,48.647,85.175,45,85.175z"></path></svg>