<svg xmlns="http://www.w3.org/2000/svg" xmlns:xlink="http://www.w3.org/1999/xlink" version="1.1" x="0px" y="0px" viewBox="0 0 100 100" enable-background="new 0 0 100 100" xml:space="preserve"><path fill="#DE5E60" d="M46.5,68c-2.2-1.1-4.1-0.4-5.1,0.7c-1,1-1.8,2.9-0.7,5.1c0.2,0.3,0.2,0.7,0.3,1  c0,0.8-1.6,9.4-7.5,13.5c-1.6,1.1-4,2.2-7.1,2.2c-1.9,0-4.1-0.4-6.6-1.4c-0.1,0-0.1-0.1-0.2-0.1c-6.4-3.2-9.9-6.6-13.1-13.1  c0-0.1-0.1-0.1-0.1-0.2c-2.6-6.6-1-11.1,0.8-13.8c4.1-5.9,12.7-7.5,13.5-7.5c0.4,0,0.7,0.1,1,0.3c2.2,1.1,4.1,0.4,5.1-0.7  c1-1,1.8-2.9,0.7-5.1c-0.4-0.8-0.3-1.7,0.1-2.4c0.3-0.4,6.8-10.1,17-10.1c1.3,0,2.4,1.1,2.4,2.4s-1.1,2.4-2.4,2.4  c-5.9,0-10.5,4.8-12.3,7c1.1,3.3,0.3,6.8-2.2,9.2c-2.6,2.6-6.4,3.3-9.8,1.9c-1.8,0.4-7.3,2-9.6,5.9c-1.3,2.3-1.3,5.1,0,8.6  c0.9,1.8,1.8,3.3,2.8,4.6l8.3-8.3c0.9-0.9,2.5-0.9,3.4,0s0.9,2.5,0,3.4L17,81.9c1.3,1,2.8,1.9,4.6,2.8c3.4,1.4,6.2,1.4,8.6,0  c3.9-2.2,5.5-7.7,5.9-9.6c-1.4-3.5-0.7-7.3,1.9-9.8c2.4-2.4,5.9-3.2,9.2-2.2c2.1-1.7,7-6.3,7-12.3c0-1.3,1.1-2.4,2.4-2.4  s2.4,1.1,2.4,2.4c0,10.2-9.7,16.7-10.1,17C48.2,68.4,47.3,68.4,46.5,68z M81.9,10.2l-42,42c-0.9,0.9-0.9,2.5,0,3.4  c0.5,0.5,1.1,0.7,1.7,0.7c0.6,0,1.2-0.2,1.7-0.7l42-42c0.9-0.9,0.9-2.5,0-3.4C84.4,9.3,82.8,9.3,81.9,10.2z M58.3,88.6l36-36  c0.9-0.9,0.9-2.5,0-3.4s-2.5-0.9-3.4,0l-36,36c-0.9,0.9-0.9,2.5,0,3.4c0.5,0.5,1.1,0.7,1.7,0.7C57.2,89.3,57.8,89,58.3,88.6z"></path></svg>